<svg height="880pt" preserveAspectRatio="xMidYMid meet" viewBox="0 0 880 880" width="880pt" xmlns="http://www.w3.org/2000/svg"><g transform="matrix(.1 0 0 -.1 0 880)"><path d="m2930 7789c-344-38-553-206-592-474-8-60-9-794-2-2890l9-2810 27-52c56-106 159-174 274-181 164-11 308 99 340 258 7 39 9 469 6 1502l-5 1448 1319 2 1319 3 56 26c252 118 259 469 11 591l-67 33-680 5-680 5-3 302-2 302 477 3 478 3 53 24c67 30 154 122 176 187 9 26 16 78 16 116 0 132-62 233-178 290l-67 33h-585c-537 0-590-2-650-18-187-53-311-181-355-369-12-50-15-145-15-470v-408h-310-310v945 945l1588 2 1587 3 57 28c68 33 121 90 157 166 21 45 26 70 26 132-1 133-70 239-195 298l-55 26-1575 1c-866 1-1609-2-1650-7z"/><path d="m4078 3960c-234-40-391-181-448-406-19-75-20-115-20-1260 0-1165 0-1184 20-1238 46-122 170-209 298-209 38 0 91 8 120 17 71 24 148 95 183 171l29 60v1108 1107h433c237 0 458 4 491 10 113 18 205 88 251 193 24 53 27 69 23 146-3 71-9 95-33 140-37 68-102 125-171 151-53 19-75 20-592 19-295-1-558-5-584-9z"/></g></svg>