<svg fill="none" height="83" viewBox="0 0 685 83" width="685" xmlns="http://www.w3.org/2000/svg"><g fill="#0d203f"><path d="m84.5571 16.574h-68.1479v17.4851h47.1493v16.4438h-47.1493v32.4971h-16.4092v-82.869838h1.86173 14.54747 68.1479z"/><path d="m186.767 16.574h-68.148v17.4851h47.149v16.4438h-47.149v16.0099h68.148v16.4872h-68.148-14.548-1.861v-82.869838h16.409 68.148z"/><path d="m288.89 83h-25.415l-28.921-24.4705h-13.725v24.4705h-16.41v-82.869838h55.419c5.225 0 9.973 1.316088 14.245 3.948248 4.301 2.63217 7.721 6.16099 10.261 10.58649 2.569 4.4255 3.853 9.3138 3.853 14.6649 0 5.3512-1.27 10.2395-3.81 14.665-2.54 4.3966-5.931 7.8965-10.174 10.4997-4.243 2.6033-8.992 3.9483-14.245 4.035zm-68.061-66.4694v25.6419h39.009c3.291 0 6.105-1.2582 8.443-3.7747s3.507-5.5391 3.507-9.068c0-3.5288-1.169-6.537-3.507-9.0245-2.338-2.5165-5.152-3.7747-8.443-3.7747z"/><path d="m382.787 0h8.226v82.8698h-16.409v-51.8912l-20.522 35.9247h-10.608l-20.522-35.9247v51.8912h-16.409v-82.8698h8.226 9.438l24.549 43.0403 24.592-43.0403z"/><path d="m492.833.130162-33.424 44.688938v38.1809h-16.409v-38.4412l-34.334-44.428638h20.782l21.778 28.158438 21.085-28.158438z"/><path d="m541.053 83c5.773 0 11.185-1.0702 16.236-3.2107 5.08-2.1693 9.525-5.1486 13.335-8.9378 3.839-3.7891 6.841-8.1857 9.006-13.1897 2.193-5.0329 3.29-10.3985 3.29-16.0967 0-5.7271-1.097-11.0927-3.29-16.0967-2.165-5.004-5.167-9.4006-9.006-13.1898-3.81-3.78914-8.255-6.75394-13.335-8.89439-5.051-2.16936-10.463-3.254048-16.236-3.254048s-11.199 1.084688-16.279 3.254048c-5.052 2.14045-9.497 5.10525-13.336 8.89439-3.81 3.7892-6.812 8.1858-9.005 13.1898-2.165 5.004-3.247 10.3696-3.247 16.0967 0 5.6982 1.082 11.0638 3.247 16.0967 2.193 5.004 5.195 9.4006 9.005 13.1897 3.839 3.7892 8.284 6.7685 13.336 8.9378 5.08 2.1405 10.506 3.2107 16.279 3.2107zm0-66.3393c4.618 0 8.832 1.1281 12.642 3.3843 3.81 2.2272 6.841 5.2354 9.092 9.0245 2.281 3.7603 3.421 7.9254 3.421 12.4956 0 4.5701-1.14 8.7498-3.421 12.5389-2.251 3.7603-5.282 6.7685-9.092 9.0246-3.81 2.2272-8.024 3.3408-12.642 3.3408s-8.833-1.1136-12.643-3.3408c-3.81-2.2561-6.855-5.2643-9.135-9.0246-2.251-3.7891-3.377-7.9688-3.377-12.5389 0-4.5702 1.126-8.7353 3.377-12.4956 2.28-3.7891 5.325-6.7973 9.135-9.0245 3.81-2.2562 8.025-3.3843 12.643-3.3843z"/><path d="m668.591.130162h16.409v82.869838h-8.226-10.608l-49.227-59.9179v59.9179h-16.41v-82.869838h18.834l49.228 59.917938z"/></g></svg>