<?xml version="1.0" encoding="UTF-8"?>
<svg width="502px" height="502px" viewBox="0 0 502 502" version="1.1" xmlns="http://www.w3.org/2000/svg" xmlns:xlink="http://www.w3.org/1999/xlink">
    <title>Group</title>
    <g id="Page-1" stroke="none" stroke-width="1" fill="none" fill-rule="evenodd">
        <g id="noun-dark-mode-4600782" transform="translate(0.168000, 0.168250)" fill="#000000" fill-rule="nonzero">
            <g id="Group">
                <path d="M385.003107,250.83175 C385.099656,207.97975 364.717,167.66375 330.15,142.34175 C295.58,117.02175 250.994,109.74375 210.17,122.75975 C169.342,135.77975 137.197,167.52175 123.666,208.18175 C123.32616,208.93956 123.02928,209.72085 122.77928,210.51375 C114.53708,236.71275 114.53708,264.81475 122.77928,291.01375 C123.02928,291.81062 123.32616,292.58795 123.666,293.34575 C137.193,333.99075 169.318,365.72475 210.123,378.75175 C250.928,391.77875 295.502,384.52905 330.073,359.23975 C364.647,333.95075 385.057,293.66575 385.003107,250.82975 L385.003107,250.83175 Z M151.672,250.83175 L151.668093,250.83175 C151.7345,244.95675 152.328253,239.10175 153.441493,233.33175 L233.336493,233.33175 L233.336493,268.33175 L153.441493,268.33175 C152.328193,262.56225 151.734493,256.70675 151.668093,250.83175 L151.672,250.83175 Z M233.34,153.43675 L233.336094,198.33175 L167.047094,198.33175 C181.836094,174.69875 205.902094,158.39775 233.336094,153.43675 L233.34,153.43675 Z M167.047,303.32675 L233.336,303.32675 L233.336,348.22175 C205.902,343.26085 181.836,326.95975 167.047,303.32675 Z M268.337,348.22175 L268.337,153.43175 C299.095,158.88095 325.474,178.54075 339.482,206.45875 C353.494,234.37675 353.494,267.27475 339.482,295.19275 C325.474,323.11075 299.095,342.77075 268.337,348.21975 L268.337,348.22175 Z" id="Shape"></path>
                <path d="M268.332,64.16375 L268.332,17.49975 C268.332,11.24585 264.9961,5.46875 259.582,2.34375 C254.1679,-0.78125 247.496,-0.78125 242.082,2.34375 C236.668,5.46875 233.332,11.24605 233.332,17.49975 L233.332,64.16375 C233.332,70.41765 236.6679,76.19475 242.082,79.31975 C247.4961,82.44475 254.168,82.44475 259.582,79.31975 C264.996,76.19475 268.332,70.41745 268.332,64.16375 Z" id="Path"></path>
                <path d="M428.162,73.50175 C424.8808,70.21655 420.4276,68.36895 415.783,68.36895 C411.1424,68.36895 406.6892,70.21665 403.408,73.50175 L370.459,106.47075 C366.0371,110.89265 364.3106,117.33775 365.9278,123.38075 C367.5489,129.41985 372.2676,134.13875 378.3068,135.75975 C384.3498,137.37695 390.7948,135.65037 395.2168,131.22855 L428.1618,98.20855 C431.4313,94.93125 433.2712,90.48585 433.2712,85.85655 C433.2712,81.22375 431.4314,76.77845 428.1618,73.50155 L428.162,73.50175 Z" id="Path"></path>
                <path d="M484.162,233.33175 L437.498,233.33175 C431.2441,233.33175 425.467,236.66765 422.342,242.08175 C419.217,247.49585 419.217,254.16775 422.342,259.58175 C425.467,264.99575 431.2443,268.33175 437.498,268.33175 L484.166,268.33175 L484.162093,268.33175 C490.415993,268.33175 496.193093,264.99585 499.318093,259.58175 C502.443093,254.16765 502.443093,247.49575 499.318093,242.08175 C496.193093,236.66775 490.415793,233.33175 484.162093,233.33175 L484.162,233.33175 Z" id="Path"></path>
                <path d="M403.452,428.16175 C407.9364,432.17345 414.175,433.59925 419.956,431.93125 C425.7412,430.26715 430.265,425.74375 431.929,419.95825 C433.597,414.17705 432.17119,407.93825 428.1595,403.45425 L395.1675,370.43825 L395.1675,370.434344 C390.7456,366.012444 384.3005,364.285944 378.2575,365.903144 C372.2184,367.524244 367.4995,372.242944 365.8785,378.282144 C364.2613,384.325144 365.98788,390.770144 370.4097,395.192144 L403.452,428.16175 Z" id="Path"></path>
                <path d="M233.332,437.50175 L233.332,484.16975 L233.332,484.165843 C233.332,490.419743 236.6679,496.196843 242.082,499.321843 C247.4961,502.446843 254.168,502.446843 259.582,499.321843 C264.996,496.196843 268.332,490.419543 268.332,484.165843 L268.332,437.501843 C268.332,431.247943 264.9961,425.470843 259.582,422.345843 C254.1679,419.220843 247.496,419.220843 242.082,422.345843 C236.668,425.470843 233.332,431.248143 233.332,437.501843 L233.332,437.50175 Z" id="Path"></path>
                <path d="M73.502,428.16175 C76.7872,431.43515 81.2403,433.27505 85.881,433.27505 C90.5177,433.27505 94.9708,431.43525 98.256,428.16175 L131.248,395.14575 L131.251907,395.14575 C135.544907,390.70435 137.177707,384.32575 135.548807,378.36475 C133.916007,372.40385 129.263607,367.74375 123.302807,366.10675 C117.345807,364.47005 110.962807,366.098937 106.517807,370.38795 L73.501807,403.45395 C70.232307,406.73125 68.392407,411.17665 68.392407,415.80595 C68.392407,420.43875 70.232207,424.88405 73.501807,428.16095 L73.502,428.16175 Z" id="Path"></path>
                <path d="M0,250.83175 C0,255.47235 1.8438,259.92555 5.125,263.20675 C8.4062,266.48795 12.8555,268.33175 17.5,268.33175 L64.164,268.33175 C70.4179,268.33175 76.195,264.99585 79.32,259.58175 C82.445,254.16765 82.445,247.49575 79.32,242.08175 C76.195,236.66775 70.4177,233.33175 64.164,233.33175 L17.5,233.33175 C12.8555,233.33175 8.4062,235.17555 5.125,238.45675 C1.8438,241.73795 0,246.19115 0,250.83175 Z" id="Path"></path>
                <path d="M131.202,131.22175 C134.4872,127.93655 136.3309,123.48735 136.3309,118.84275 C136.3309,114.19815 134.4871,109.74505 131.202,106.46375 L98.206,73.49475 C93.7216,69.48305 87.483,68.05725 81.702,69.72525 C75.9168,71.38935 71.393,75.91275 69.729,81.69825 C68.061,87.47945 69.48681,93.71825 73.4985,98.20225 L106.4675,131.22225 C109.7527,134.49175 114.198,136.32775 118.8345,136.32775 C123.4712,136.32775 127.9165,134.49185 131.2015,131.22225 L131.202,131.22175 Z" id="Path"></path>
            </g>
        </g>
    </g>
</svg>