<svg fill="none" height="505" viewBox="0 0 333 505" width="333" xmlns="http://www.w3.org/2000/svg"><path d="m116.809 116.557h88.7005v188.971h-88.7005z" fill="#ece5ee"/><path d="m280.712 47.1392h-231.3932v406.8658z" fill="#ece5ee"/><circle cx="216.511" cy="209.671" fill="#28ffcc" r="91.9895" stroke="#28ffcc" stroke-width="49"/><g clip-rule="evenodd" fill="#0d203f" fill-rule="evenodd"><path d="m228.431 301.699c0 13.255-10.746 24-24 24h-63.071v155.301c0 13.255-10.745 24-24 24s-23.9997-10.745-23.9997-24v-158.115c0-9.295 1.2508-23.526 12.4047-34.026 10.691-10.065 24.759-11.16 34.368-11.16h64.298c13.254 0 24 10.745 24 24z"/><path d="m228.431 116.791c0 13.255-10.745 24-24 24h-63.07v68.208c0 13.255-10.745 24-24 24s-24.0002-10.745-24.0002-24v-73.67c0-7.397.2024-23.16 12.8312-33.673 6.031-5.0199 12.721-6.9565 17.752-7.8407 4.958-.8713 10.182-1.0243 14.849-1.0243h65.638c13.255 0 24 10.745 24 24zm-96.277 24.319s.022-.005.068-.014c-.044.011-.067.015-.068.014z"/><path d="m296.929 24c0 13.2548-10.745 24-24 24h-215.5428c-3.5866 0-6.4064.1702-8.5861.4193l.437 393.7437c.0147 13.255-10.7185 24.012-23.9733 24.026-13.2548.015-24.01191-10.718-24.02662-23.973l-.447171-402.8906.028442-.5904c.262879-5.4569 1.637569-11.6188 5.192049-17.5601 3.58487-5.992 8.6165-10.4687 14.2537-13.63351 10.4408-5.8615 23.4956-7.54139 37.122-7.54139h215.5428c13.255 0 24 10.7452 24 24z"/><path d="m258.268 208.999c0 13.254-10.746 24-24 24h-212.0147v-48h212.0147c13.254 0 24 10.745 24 24z"/></g></svg>